# xmcd
#
# Track frame offsets:
#	150
#	35982
#	69070
#	91005
#	116694
#	158531
#	198041
#	230637
#	263352
#	292906
#	321723
#
# Disc length: 4607 seconds
#
# Revision: 2
# Processed by: cddbd v1.5.2PL0 Copyright (c) Steve Scherf et al.
# Submitted via: EZCDAudioConverter 7.0.6.1
#
DISCID=8c11fd0b
DTITLE=Bananarama - Greatest Hits Collection 2/2
DYEAR=2017
DGENRE=
TTITLE0=Really Saying Something [U.S. Extended Version]
TTITLE1=Shy Boy [U.S. Extended Version]
TTITLE2=Na Na Hey Hey (Kiss Him Goodbye) [Extended Version]
TTITLE3=Robert De Niro's Waiting... [Extended Version]
TTITLE4=Venus [Hellfire Mix]
TTITLE5=More Than Physical [Garage Mix]
TTITLE6=I Heard A Rumour [Miami Mix]
TTITLE7=Love In The First Degree [Eurobeat Style]
TTITLE8=I Can't Help It [The Hammond Version Excursion]
TTITLE9=Nathan Jones [Psycho Mix]
TTITLE10=Cruel Summer ['89 Swing Beat Dub]
EXTD=
EXTT0=
EXTT1=
EXTT2=
EXTT3=
EXTT4=
EXTT5=
EXTT6=
EXTT7=
EXTT8=
EXTT9=
EXTT10=
PLAYORDER=
